<svg xmlns="http://www.w3.org/2000/svg" viewBox="0 0 100 100">
  <defs>
    <linearGradient id="grad" x1="0%" y1="0%" x2="100%" y2="100%">
      <stop offset="0%" style="stop-color:#dc2626;stop-opacity:1" />
      <stop offset="100%" style="stop-color:#b91c1c;stop-opacity:1" />
    </linearGradient>
  </defs>
  <rect width="100" height="100" fill="url(#grad)" rx="20"/>
  <path d="M50 20 C30 20 15 35 15 55 C15 75 30 90 50 90 C60 90 68 86 74 80 L65 70 C61 74 56 76 50 76 C38 76 29 67 29 55 C29 43 38 34 50 34 C56 34 61 36 65 40 L74 30 C68 24 60 20 50 20 Z" fill="white"/>
  <path d="M70 65 Q75 70 75 80 Q75 85 70 85 Q65 85 65 80 Q65 70 70 65 Z" fill="white" opacity="0.8"/>
</svg>
